<?xml version="1.0" standalone="no"?>
<!DOCTYPE svg PUBLIC "-//W3C//DTD SVG 20010904//EN"
 "http://www.w3.org/TR/2001/REC-SVG-20010904/DTD/svg10.dtd">
<svg version="1.0" xmlns="http://www.w3.org/2000/svg"
 width="820.000000pt" height="641.000000pt" viewBox="0 0 820.000000 641.000000"
 preserveAspectRatio="xMidYMid meet">
<metadata>
Created by potrace 1.15, written by Peter Selinger 2001-2017
</metadata>
<g transform="translate(0.000000,641.000000) scale(0.100000,-0.100000)"
fill="#000000" stroke="none">
<path d="M2845 5370 c-74 -17 -131 -66 -164 -141 -29 -65 -45 -228 -38 -384
10 -220 46 -306 147 -358 45 -24 65 -28 111 -25 30 2 73 13 95 24 48 25 100
91 115 147 44 162 37 483 -13 599 -21 49 -82 112 -121 127 -37 14 -100 19
-132 11z"/>
<path d="M5300 5374 c-8 -1 -31 -5 -51 -9 -51 -8 -121 -72 -148 -134 -29 -69
-45 -228 -38 -391 7 -153 24 -226 64 -285 36 -52 119 -95 183 -95 69 0 147 43
187 102 40 61 53 122 60 288 7 160 -9 312 -38 381 -39 90 -142 157 -219 143z"/>
<path d="M2221 5004 c-39 -49 -36 -168 5 -209 20 -19 32 -11 50 31 25 60 11
176 -24 198 -6 3 -20 -5 -31 -20z"/>
<path d="M3392 5013 c-27 -52 -20 -189 11 -220 14 -14 17 -12 31 15 19 37 21
156 3 191 -16 31 -33 37 -45 14z"/>
<path d="M4764 4995 c-18 -45 -18 -136 1 -182 14 -33 17 -35 31 -21 23 22 36
95 28 153 -12 90 -35 109 -60 50z"/>
<path d="M5928 4998 c-19 -35 -17 -158 5 -191 23 -35 42 -26 63 29 37 96 -24
240 -68 162z"/>
</g>
</svg>
